/* XPM */
static char *cobble_north_21725616041[] = {
/* columns rows colors chars-per-pixel */
"32 32 3 1 ",
"  c gray34",
". c #7B7B7B",
"X c #67D700",
/* pixels */
"   .   .       ..           .   ",
"  ..   ..       .      .......  ",
"  .     .....   ........     .  ",
" ..     .   ..  .     .      .. ",
"..     ..    .. .     ..      ..",
"...  ...      ...      .     ...",
"  ....     .... ...    .   ...  ",
"    ....XXXX      ..    ....    ",
"     ..    X       .   ....     ",
".. ...     XXX     ....   ... ..",
" ....        X     X.      .... ",
"    ..       X   .XX      ..    ",
"     ..  ....XXXXXX      ..     ",
"      ....   ..   ..     .      ",
"      .      .      ..   .      ",
"      .     ..       ..  .      ",
"..... .  .....     .. .. . .....",
"     ....    .......   ....     ",
"     .          .         .     ",
"     .          .         .     ",
"    ...         .         ..    ",
"  ...  ....     .       .. ...  ",
"..        .... ..........     ..",
".        .   ...   ..   .      .",
".       ..    .   ..    ..     .",
".       .     .  ..      .     .",
".     ...     . ...      .     .",
".......       ... .    .........",
"     ..........   ......  .     ",
"    ..      ..     ..     ..    ",
"   ..      ..       .      ..   ",
"....      ..        .       ...."
};
