/* XPM */
static char *door_animated_21725610431[] = {
/* columns rows colors chars-per-pixel */
"32 32 13 1 ",
"  c #171614",
". c #522F1C",
"X c #59341E",
"o c #6E4128",
"O c #524E4E",
"+ c #646060",
"@ c #666363",
"# c #716D6D",
"$ c #BC0000",
"% c #E03333",
"& c #F1B140",
"* c #F2E94E",
"= c gray57",
/* pixels */
"######@#####+#####+###+###+#####",
"######@#####$#####+&$$+#$#+#$###",
"#@@@@#+#@@@$+$@@@@+&&*+#@@+@&@##",
"@@@@@@+@@@$&+@@$O++@@@+@@$$@@@@#",
"@@@@@++@@@@@+OO*&++$OO+O$$$$$$@@",
"OOOO++OO@@O&   $   $+++$$&&&$$$@",
"OOO+OOOOOO &$oXXoXo   #$$&**&&$@",
"+++++++O+  ooXXoX&$oX* $&&**&$$+",
"######++  XooXXoX$ooX$ $&***&$++",
"#@@###+  XXoXXXoXXooXXX$$&**&$##",
"@@@@@#+ oXooXXoooXXooXXo$&**&$##",
"@@@@@@+ oXooXXoooXXooXXo$&**&$$@",
"@@OOOOO oXooXXXooXXooXXo$&&*&$$#",
"OOOOOO  oXooXXXooXXooX$o$$&*&$$O",
"OOO+++ ooXooXXXooXXoo$&oo$&**&$O",
"++++## oXXooXoXXooXXoXooX $&&&$+",
"###### oXooXXoXXooXXoXooX +$&$$#",
"@@@@@# oXooXXooXooXXoXooX ++oo##",
"@@@@@@ XXooXXooXooXXoXooX #====@",
"OOOOOO XoooXXooXoooXoXooX ++o.@@",
"OOOOO+ XoooX=ooXooo=oXooX +Oo.OO",
"++++++ XoooX=ooXooX=oXooX ++++++",
"#####+ XooXX==oooo==oXooX +#####",
"###### XXoXXo==%%==oXXooX +#@@@@",
"@@@@@+ oXoXXXoo%%XXoXoooX +++OOO",
"OOOO+@ oXooXXooooXXoXoooX +#++++",
"++O++O oXooXXoooXXXoXoooo +####+",
"##++OO oXoooXoooXXooXoooo +@@@@@",
"####+O oXoooXoooXXooXXooo +O@@@@",
"@@###+ oXoooXoooXoooXXooo +OOOOO",
"OO@@## oXXooXoooXooXXXooo +OOOOO",
"OOOO@@ ooXooXoooXooXXXooo +OOOOO"
};
