/* XPM */
static char *door_animated_11725610431[] = {
/* columns rows colors chars-per-pixel */
"32 32 13 1 ",
"  c #171614",
". c #522F1C",
"X c #59341E",
"o c #6E4128",
"O c #524E4E",
"+ c #646060",
"@ c #666363",
"# c #716D6D",
"$ c #BC0000",
"% c #E03333",
"& c #F1B140",
"* c #F2E94E",
"= c gray57",
/* pixels */
"######@#####+#####$###+$##+#####",
"######@#####+##$#$$$#++&$#+$$###",
"#@@@@#+#@@@#+#$$@@+@##+#@@+@&$##",
"@@@@@@+@@@@#+@@OO++@@@+@@++$@@@#",
"@@@@@++@@@@@+OO+++++$O$$$$+O@@@@",
"OOOO++OO@@O+ $$    $$++$$$$OO@@@",
"OOO+OOOOOO   o&XoXo $ ##$$$$$$O@",
"+++++++O+  ooX$$XXooX  @$&&$$$$+",
"######++  XooXXoXXooXX  $$&&&$$+",
"#@@###+  XXoXXXoX$&oXXX  $&*&$$#",
"@@@@@#+ oXooXXoooXX$oXXo &&*&&$$",
"@@@@@@+ oXooXXoooXXooX$o $&***&$",
"@@OOOOO oXooXXXooXXooX$o +&***&$",
"OOOOOO  oXooXXXooXXooXXo  $&**&$",
"OOO+++ ooXooXXXooXXooXooo +$**$$",
"++++## oXXooXoXXooXXoXooX +$&&$+",
"###### oXooXXoXXooXXoXooX +$&$$#",
"@@@@@# oXooXXooXooXXoXooX ++oo##",
"@@@@@@ XXooXXooXooXXoXooX #====@",
"OOOOOO XoooXXooXoooXoXooX ++o.@@",
"OOOOO+ XoooX=ooXooo=oXooX +Oo.OO",
"++++++ XoooX=ooXooX=oXooX ++++++",
"#####+ XooXX==oooo==oXooX +#####",
"###### XXoXXo==%%==oXXooX +#@@@@",
"@@@@@+ oXoXXXoo%%XXoXoooX +++OOO",
"OOOO+@ oXooXXooooXXoXoooX +#++++",
"++O++O oXooXXoooXXXoXoooo +####+",
"##++OO oXoooXoooXXooXoooo +@@@@@",
"####+O oXoooXoooXXooXXooo +O@@@@",
"@@###+ oXoooXoooXoooXXooo +OOOOO",
"OO@@## oXXooXoooXooXXXooo +OOOOO",
"OOOO@@ ooXooXoooXooXXXooo +OOOOO"
};
